@startuml
'https://plantuml.com/class-diagram



left to right direction
skinparam BackgroundColor #f5f5f5
skinparam style strictuml
skinparam DefaultFontSize 16
skinparam DefaultFontStyle bold
skinparam ArrowColor #lightgrey
skinparam ArrowThickness 5
hide methods
hide circle
hide empty

<style>
legend {
    BackgroundColor #f5f5f5
    FontColor black
    FontSize 20
}

.p {
    FontColor black
}
</style>


Title Fog Domænemodel

class Webshop {
}

class Salesperson #tomato{
}


legend *se ordrestatus i aktivitets diagram


Class Customer{
    name
    address
    mail
    phonenumber
}

Class Order {
    orderId
    carportId
    userId
    date
    *orderStatus
}

Class Carport {
    length
    width
}

Class Materials {
    pillar
    strap
    rafter
    screw
}

Class Shed {
    length
    width
}


Class Itemlist {

}


note left: Hidden until sale

Webshop "1"--"*" Salesperson #tomato: has admin rights
Webshop "1"--"*" Customer : doesnt have admin rights
Customer "1"--"*" Order : can place order
Order "1"--"1" Carport
Carport "1"--"0..1" Shed : can choose shed
Itemlist "1"--"*" Materials
Salesperson "1"--"*"  Order #tomato: can manage order
Order "1"--"0..1" Itemlist
Carport "1"--"*" Materials : Materials are calculated
Shed "1"--"*" Materials


@enduml